<!DOCTYPE svg PUBLIC "-//W3C//DTD SVG 1.1//EN" "http://www.w3.org/Graphics/SVG/1.1/DTD/svg11.dtd">
<!-- Uploaded to: SVG Repo, www.svgrepo.com, Transformed by: SVG Repo Mixer Tools -->
<svg fill="#000000" width="256px" height="256px" viewBox="0 0 512.00 512.00" data-name="Layer 1" id="Layer_1" xmlns="http://www.w3.org/2000/svg">
<g id="SVGRepo_bgCarrier" stroke-width="0"/>
<g id="SVGRepo_tracerCarrier" stroke-linecap="round" stroke-linejoin="round" stroke="#CCCCCC" stroke-width="19.456">
<path d="M460.38,224.11l-72.55-61.27V77.07a4.53,4.53,0,0,0-4.53-4.54H328.25a4.53,4.53,0,0,0-4.53,4.54v31.62L258.93,54a4.56,4.56,0,0,0-5.86,0L51.62,224.11a4.53,4.53,0,0,0,2.93,8H96.79V454.55a4.54,4.54,0,0,0,9.07,0v-227a4.53,4.53,0,0,0-4.54-4.53H66.94L256,63.37l69.32,58.55a4.53,4.53,0,0,0,7.46-3.47V81.6h46V165a4.52,4.52,0,0,0,1.61,3.46L454.53,231a4.53,4.53,0,1,0,5.85-6.92Z"/>
<path d="M277.31,372a26,26,0,0,0-3.31-2.93H286A4.53,4.53,0,0,0,290,366.5l37.47-79a4.53,4.53,0,0,0-8.19-3.89L283.08,360H270a16.3,16.3,0,0,0,5.14-17.41A16.25,16.25,0,0,0,254.21,332l-26.39,9.24-5.43-10.28a34.93,34.93,0,0,0-13.83-14.18,40.74,40.74,0,1,0-36,.74,35,35,0,0,0-16.64,29.78V422.1A36.39,36.39,0,0,0,216.56,449l40.1-36.21L303,454.24a18.9,18.9,0,0,0,12.62,4.86,19.51,19.51,0,0,0,12.45-4.58,19,19,0,0,0,1.59-27.85ZM158.13,280.57a31.69,31.69,0,1,1,31.69,31.69A31.72,31.72,0,0,1,158.13,280.57ZM325.9,440.42a10.21,10.21,0,0,1-16.84,7.06l-49.39-44.14a4.54,4.54,0,0,0-6.06,0l-43.12,38.95a27.24,27.24,0,0,1-29.07,4.63A27,27,0,0,1,165,422.1V347.26a26,26,0,0,1,25.94-25.94h.5a25.87,25.87,0,0,1,22.93,13.83l7.25,13.73a4.53,4.53,0,0,0,5.51,2.16l30.07-10.52a7.12,7.12,0,0,1,5.63.37,7.23,7.23,0,0,1,3.68,4.55,7.13,7.13,0,0,1-4.18,8.72l-36.06,14.56a16.74,16.74,0,0,1-19.47-5.23,2.66,2.66,0,0,0-.28-.38,17.19,17.19,0,0,1-1.28-2.05l-8.09-15.17a4.53,4.53,0,1,0-8,4.26l8.08,15.17c.4.74.83,1.46,1.28,2.15v33.69a4.53,4.53,0,0,0,7.06,3.76l43-28.91a17.16,17.16,0,0,1,22.2,2.28l52.37,54.64A9.92,9.92,0,0,1,325.9,440.42Zm-93.7-64.33-24.62,16.56V375.83a25.73,25.73,0,0,0,22.08,1.29Z"/>
<path d="M308.61,244.94a4.53,4.53,0,0,0,0,9.06,44.38,44.38,0,0,1,44.33,44.33,4.53,4.53,0,0,0,9.06,0A53.45,53.45,0,0,0,308.61,244.94Z"/>
<path d="M308.61,196.08a4.53,4.53,0,0,0,0,9.06,93.3,93.3,0,0,1,93.19,93.19,4.54,4.54,0,0,0,9.07,0A102.38,102.38,0,0,0,308.61,196.08Z"/>
</g>
<g id="SVGRepo_iconCarrier">
<path d="M460.38,224.11l-72.55-61.27V77.07a4.53,4.53,0,0,0-4.53-4.54H328.25a4.53,4.53,0,0,0-4.53,4.54v31.62L258.93,54a4.56,4.56,0,0,0-5.86,0L51.62,224.11a4.53,4.53,0,0,0,2.93,8H96.79V454.55a4.54,4.54,0,0,0,9.07,0v-227a4.53,4.53,0,0,0-4.54-4.53H66.94L256,63.37l69.32,58.55a4.53,4.53,0,0,0,7.46-3.47V81.6h46V165a4.52,4.52,0,0,0,1.61,3.46L454.53,231a4.53,4.53,0,1,0,5.85-6.92Z"/>
<path d="M277.31,372a26,26,0,0,0-3.31-2.93H286A4.53,4.53,0,0,0,290,366.5l37.47-79a4.53,4.53,0,0,0-8.19-3.89L283.08,360H270a16.3,16.3,0,0,0,5.14-17.41A16.25,16.25,0,0,0,254.21,332l-26.39,9.24-5.43-10.28a34.93,34.93,0,0,0-13.83-14.18,40.74,40.74,0,1,0-36,.74,35,35,0,0,0-16.64,29.78V422.1A36.39,36.39,0,0,0,216.56,449l40.1-36.21L303,454.24a18.9,18.9,0,0,0,12.62,4.86,19.51,19.51,0,0,0,12.45-4.58,19,19,0,0,0,1.59-27.85ZM158.13,280.57a31.69,31.69,0,1,1,31.69,31.69A31.72,31.72,0,0,1,158.13,280.57ZM325.9,440.42a10.21,10.21,0,0,1-16.84,7.06l-49.39-44.14a4.54,4.54,0,0,0-6.06,0l-43.12,38.95a27.24,27.24,0,0,1-29.07,4.63A27,27,0,0,1,165,422.1V347.26a26,26,0,0,1,25.94-25.94h.5a25.87,25.87,0,0,1,22.93,13.83l7.25,13.73a4.53,4.53,0,0,0,5.51,2.16l30.07-10.52a7.12,7.12,0,0,1,5.63.37,7.23,7.23,0,0,1,3.68,4.55,7.13,7.13,0,0,1-4.18,8.72l-36.06,14.56a16.74,16.74,0,0,1-19.47-5.23,2.66,2.66,0,0,0-.28-.38,17.19,17.19,0,0,1-1.28-2.05l-8.09-15.17a4.53,4.53,0,1,0-8,4.26l8.08,15.17c.4.74.83,1.46,1.28,2.15v33.69a4.53,4.53,0,0,0,7.06,3.76l43-28.91a17.16,17.16,0,0,1,22.2,2.28l52.37,54.64A9.92,9.92,0,0,1,325.9,440.42Zm-93.7-64.33-24.62,16.56V375.83a25.73,25.73,0,0,0,22.08,1.29Z"/>
<path d="M308.61,244.94a4.53,4.53,0,0,0,0,9.06,44.38,44.38,0,0,1,44.33,44.33,4.53,4.53,0,0,0,9.06,0A53.45,53.45,0,0,0,308.61,244.94Z"/>
<path d="M308.61,196.08a4.53,4.53,0,0,0,0,9.06,93.3,93.3,0,0,1,93.19,93.19,4.54,4.54,0,0,0,9.07,0A102.38,102.38,0,0,0,308.61,196.08Z"/>
</g>
</svg>